# xmcd
#
# Track frame offsets:
#	150
#	841
#	30831
#	44329
#	70536
#	85761
#	120312
#	139887
#	156351
#	205157
#	226868
#	236296
#	254293
#	267920
#	282127
#	296101
#	323226
#
# Disc length: 4632 seconds
# Revision: 0
# Processed by: cddbd v1.5.2PL0 Copyright (c) Steve Scherf et al.
# Submitted via: dBpowerAMP V12.0
#
DISCID=d8121611
DTITLE=Irek Dudek - Live at Nospr
DYEAR=2018
DGENRE=Blues
TTITLE0=Oklaski
TTITLE1=One Day Hero
TTITLE2=Basin' Street Blues
TTITLE3=Tak dobrze mi
TTITLE4=Taka przebojowa
TTITLE5=Straight Blues
TTITLE6=Kameralny Blues
TTITLE7=Goście idą
TTITLE8=Blues in A
TTITLE9=From Alojz to Alex
TTITLE10=Hit the Road Jack
TTITLE11=Georgia on my Mind
TTITLE12=Stereo dźwięk
TTITLE13=Unchain my Heart
TTITLE14=Przebierka
TTITLE15=Something Must Have Changed
TTITLE16=I Can't Stop Loving You
EXTD=
EXTT0=
EXTT1=
EXTT2=
EXTT3=
EXTT4=
EXTT5=
EXTT6=
EXTT7=
EXTT8=
EXTT9=
EXTT10=
EXTT11=
EXTT12=
EXTT13=
EXTT14=
EXTT15=
EXTT16=
PLAYORDER=
